# xmcd
#
# Track frame offsets:
#	150
#	15452
#	26463
#	42093
#	62370
#	67491
#	83824
#	97723
#	111131
#	129131
#	140235
#	154350
#	170511
#	180776
#	185465
#	193944
#	209205
#	222634
#	237485
#
# Disc length: 3370 seconds
#
# Revision: 1
# Processed by: cddbd v1.5.2PL0 Copyright (c) Steve Scherf et al.
# Submitted via: audiograbber 1.83.01
#
DISCID=120d2813
DTITLE=James Michael Taylor - Somewhere
DYEAR=2007
DGENRE=Country
TTITLE0=That's What Loneliness Will Do
TTITLE1=My Name Is James Michael Taylor
TTITLE2=Some Kind Of Love
TTITLE3=I Mistook It For The Moon
TTITLE4=The Way I Feel Tonight
TTITLE5=Chimes
TTITLE6=Somewhere
TTITLE7=The Corner
TTITLE8=I Remember Us
TTITLE9=Mango
TTITLE10=I Wonder
TTITLE11=Let It Go
TTITLE12=My Car Blues
TTITLE13=She Kisses Me
TTITLE14=Blub
TTITLE15=Winter
TTITLE16=Hannah At The Red Light
TTITLE17=Peggy's Eyes
TTITLE18=Sweet Rain
EXTD=
EXTT0=
EXTT1=
EXTT2=
EXTT3=
EXTT4=
EXTT5=
EXTT6=
EXTT7=
EXTT8=
EXTT9=
EXTT10=
EXTT11=
EXTT12=
EXTT13=
EXTT14=
EXTT15=
EXTT16=
EXTT17=
EXTT18=
PLAYORDER=
